<?xml version="1.0" encoding="utf-8"?>
<svg id="master-artboard" version="1.1" xmlns="http://www.w3.org/2000/svg" x="0px" y="0px" width="390" height="95" xmlns:xlink="http://www.w3.org/1999/xlink"><defs><style id="ee-google-fonts">@import url(https://fonts.googleapis.com/css?family=Rubik:300,300italic,400,400italic,500,500italic,700,700italic,900,900italic);</style><clipPath id="clip-path"><path id="_Clipping_Path_" data-name="&lt;Clipping Path&gt;" class="cls-1" d="M133.81,21.07c-1.69.92-3.52,2.56-6.95,6.31l-8.7,9.54,34.46,40A71.76,71.76,0,0,1,164,96.09c.41,1.06.89,2.09,1.25,3.13v-.06l-.1-.32-2.62-8.37-5.75-18.36L142.38,26.94S140.24,20,136.93,20a7.79,7.79,0,0,0-3.12,1" style="fill: none;"/></clipPath><linearGradient id="未命名的渐变_3" x1="-277.43" y1="-73.32" x2="-273.35" y2="-73.32" gradientTransform="matrix(0, 20.86, 20.86, 0, 1671.13, 5808.89)" gradientUnits="userSpaceOnUse"><stop offset="0" stop-color="#b3b5bb"/><stop offset="0" stop-color="#b4b6bc"/><stop offset="0.08" stop-color="#d2d3d6"/><stop offset="0.14" stop-color="#e4e4e5"/><stop offset="0.19" stop-color="#ebeaeb"/><stop offset="0.38" stop-color="#e7e6e8"/><stop offset="0.56" stop-color="#dbdbdd"/><stop offset="0.75" stop-color="#c7c8cc"/><stop offset="0.93" stop-color="#acaeb3"/><stop offset="1" stop-color="#a0a3a9"/></linearGradient><clipPath id="clip-path-2"><path id="_Clipping_Path_2" data-name="&lt;Clipping Path&gt;" class="cls-1" d="M85.72,72.49l-9.8,10.65L34.59,128.37s-3.46,3.91-3.53,6.8v.16a2.69,2.69,0,0,0,.28,1.17l.24.43a6.62,6.62,0,0,0,2.09,1.85c1.64,1,4,1.86,9,2.94l12.66,2.78,17.44-50A71.72,71.72,0,0,1,83.68,75.1c.71-.89,1.35-1.82,2.09-2.65Z" style="fill: none;"/></clipPath><linearGradient id="未命名的渐变_3-2" x1="-318.72" y1="-102.65" x2="-314.64" y2="-102.65" gradientTransform="matrix(21.75, 0, 0, -21.75, 6952.86, -2123.66)" xlink:href="#未命名的渐变_3"/><clipPath id="clip-path-3"><path id="_Clipping_Path_3" data-name="&lt;Clipping Path&gt;" class="cls-1" d="M127.84,155a70.69,70.69,0,0,1-22.32.33c-1-.16-2.09-.34-3.11-.53l2.4.53,21,4.71,3.17.71,47.23,10.36s6.48,1.53,8.67-1.25l.12-.2a7.93,7.93,0,0,0,.62-3.11c0-1.93-.4-4.39-1.93-9.22l-2.32-7.3-1.56-4.91Z" style="fill: none;"/></clipPath><linearGradient id="未命名的渐变_3-3" x1="-326.86" y1="-51.54" x2="-322.79" y2="-51.54" gradientTransform="matrix(0, -19.66, -19.66, 0, -869.49, -6228.35)" xlink:href="#未命名的渐变_3"/><clipPath id="path-1"><path id="path-2" data-name="&lt;Clipping Path&gt;" class="cls-1" d="M133.81,21.07c-1.69.92-3.52,2.56-6.95,6.31l-8.7,9.54,34.46,40A71.76,71.76,0,0,1,164,96.09c.41,1.06.89,2.09,1.25,3.13v-.06l-.1-.32-2.62-8.37-5.75-18.36L142.38,26.94S140.24,20,136.93,20a7.79,7.79,0,0,0-3.12,1" style="fill: none;"/></clipPath><linearGradient id="gradient-1" x1="-277.43" y1="-73.32" x2="-273.35" y2="-73.32" gradientTransform="matrix(0, 20.86, 20.86, 0, 1671.13, 5808.89)" gradientUnits="userSpaceOnUse"><stop offset="0" stop-color="#b3b5bb"/><stop offset="0" stop-color="#b4b6bc"/><stop offset="0.08" stop-color="#d2d3d6"/><stop offset="0.14" stop-color="#e4e4e5"/><stop offset="0.19" stop-color="#ebeaeb"/><stop offset="0.38" stop-color="#e7e6e8"/><stop offset="0.56" stop-color="#dbdbdd"/><stop offset="0.75" stop-color="#c7c8cc"/><stop offset="0.93" stop-color="#acaeb3"/><stop offset="1" stop-color="#a0a3a9"/></linearGradient><clipPath id="path-3"><path id="path-4" data-name="&lt;Clipping Path&gt;" class="cls-1" d="M85.72,72.49l-9.8,10.65L34.59,128.37s-3.46,3.91-3.53,6.8v.16a2.69,2.69,0,0,0,.28,1.17l.24.43a6.62,6.62,0,0,0,2.09,1.85c1.64,1,4,1.86,9,2.94l12.66,2.78,17.44-50A71.72,71.72,0,0,1,83.68,75.1c.71-.89,1.35-1.82,2.09-2.65Z" style="fill: none;"/></clipPath><linearGradient id="gradient-2" x1="-318.72" y1="-102.65" x2="-314.64" y2="-102.65" gradientTransform="matrix(21.75, 0, 0, -21.75, 6952.86, -2123.66)" xlink:href="#gradient-1"/><clipPath id="path-5"><path id="path-6" data-name="&lt;Clipping Path&gt;" class="cls-1" d="M127.84,155a70.69,70.69,0,0,1-22.32.33c-1-.16-2.09-.34-3.11-.53l2.4.53,21,4.71,3.17.71,47.23,10.36s6.48,1.53,8.67-1.25l.12-.2a7.93,7.93,0,0,0,.62-3.11c0-1.93-.4-4.39-1.93-9.22l-2.32-7.3-1.56-4.91Z" style="fill: none;"/></clipPath><linearGradient id="gradient-3" x1="-326.86" y1="-51.54" x2="-322.79" y2="-51.54" gradientTransform="matrix(0, -19.66, -19.66, 0, -869.49, -6228.35)" xlink:href="#gradient-1"/></defs><g transform="matrix(0.5933908820152283, 0, 0, 0.5933908820152283, -16.197852892706862, -10.121392250061035)"><title>Asset 1</title><g id="g-1" data-name="Layer 2"><g id="g-2" data-name="图层 1"><g id="g-3" data-name="&lt;Group&gt;"><path class="cls-2" d="M341.23,168.7,329.4,131.18h-43l-12.2,37.52h-15.3L301.35,43.4h14.94l42.25,125.3ZM312.1,73.63c-3.09-9.83-3.64-15.11-3.64-15.11h-.36a104.24,104.24,0,0,1-3.84,15.11l-14.93,47.54h37.34Z" style="fill: rgb(127, 130, 135);"/><path d="M 376.029999 25.74 H 392.059999 V 168.710001 H 376.029999 V 25.74 Z" id="path-7" data-name="&lt;Path&gt;" class="cls-2" style="fill: rgb(127, 130, 135);"/><path id="path-8" data-name="&lt;Path&gt;" class="cls-2" d="M449.06,169.62c-17.84,0-24.41-12.75-24.41-24.77V80.55H413.37v-10h11.29V48l16-4.92v27.5H457.8v10H440.69v63.93c0,7.83,3.45,14.2,12.37,14.2a21.45,21.45,0,0,0,4.74-.73v10.19a28.44,28.44,0,0,1-8.74,1.46" style="fill: rgb(127, 130, 135);"/><path class="cls-2" d="M510.07,170.53c-25.5,0-37.34-11.11-37.34-29,0-26,24.4-33.69,54.82-36.79v-6c0-15.12-9.11-19.49-21.67-19.49-9.47,0-18.22,3.46-23.68,6.19L478.38,76a64.89,64.89,0,0,1,30.05-7.29c18.22,0,34.24,7.84,34.24,31.88v63c-7.47,4.2-18.93,6.93-32.6,6.93M527.56,113c-24.77,3.1-39.52,8.38-39.52,28.24,0,14.2,8.74,20,23.31,20,6.19,0,12.2-1.09,16.21-3.27Z" style="fill: rgb(127, 130, 135);"/><path class="cls-2" d="M577.65,51.6c-5.29,0-9.47-4-9.47-8.74a9.39,9.39,0,0,1,18.75,0c0,4.74-4.18,8.74-9.28,8.74m-8,18.94h16V168.7h-16Z" style="fill: rgb(127, 130, 135);"/><path id="path-9" data-name="&lt;Path&gt;" class="cls-2" d="M650.86,81.1c-8-2.37-17.12-1.64-22.41,1.82v85.78h-16V75.82c9.66-4.92,18.94-7.47,42.25-6.92Z" style="fill: rgb(127, 130, 135);"/><path id="path-10" data-name="&lt;Path&gt;" class="cls-3" d="M136.89,20h-.71l-34.66,0c-6.18,0-7.9,5.82-7.9,5.82S73,80.45,67.24,92.57L85.72,72.49l32.43-35.57,8.71-9.55c3.43-3.75,5.26-5.38,6.95-6.31a7.74,7.74,0,0,1,3.12-1h0" style="fill: rgb(224, 49, 80);"/><path id="path-11" data-name="&lt;Path&gt;" class="cls-4" d="M200.88,128.26,156.74,72.11l5.75,18.36,2.72,8.69,18.5,58.2c1.53,4.84,2,7.3,1.93,9.22a8,8,0,0,1-.62,3.11l.1-.16.22-.44L202,138c2.74-5.2-1.09-9.75-1.09-9.75" style="fill: rgb(34, 173, 220);"/></g><g class="cls-5" style="clip-path: url('#path-1');"><path d="M 101.830002 13.6 H 181.550003 V 105.67 H 101.830002 V 13.6 Z" id="path-12" data-name="&lt;Path&gt;" class="cls-6" transform="translate(-11.08 76.75) rotate(-29.22)" style="fill: url('#gradient-1');"/></g><g class="cls-7" style="clip-path: url('#path-3');"><path d="M 13.56 66.839996 H 103.27 V 150.109993 H 13.56 V 66.839996 Z" id="path-13" data-name="&lt;Path&gt;" class="cls-8" transform="translate(-64.75 105.3) rotate(-60.22)" style="fill: url('#gradient-2');"/></g><g class="cls-9" style="clip-path: url('#path-5');"><path d="M 128.559998 116.730003 H 159.539997 V 201.080002 H 128.559998 V 116.730003 Z" id="path-14" data-name="&lt;Path&gt;" class="cls-10" transform="translate(-20.75 296.18) rotate(-87.6)" style="fill: url('#gradient-3');"/></g><g id="g-4" data-name="&lt;Group&gt;"><path id="path-15" data-name="&lt;Path&gt;" class="cls-11" d="M31.57,136.93" style="fill: rgb(244, 187, 87);"/><path id="path-16" data-name="&lt;Path&gt;" class="cls-12" d="M125.82,160.07l-21-4.71-2.4-.53-59.79-13.1c-5-1.08-7.32-1.94-9-2.95a6.5,6.5,0,0,1-2.09-1.85h0l18.66,30.28c2.89,5,9,3.93,9,3.93L129,160.79h0Z" style="fill: rgb(245, 193, 96);"/></g></g></g></g></svg>