<svg width="155" height="155" xmlns="http://www.w3.org/2000/svg">
	<style type="text/css">.st0{fill:#ED1C24;}</style>
	<g>
		<path id="svg_3" d="m129.4,2.4l-71.7,0c-5.4,0 -10.4,2.1 -14.2,5.9l-38.2,38.2l9.9,9.9l38.2,-38.2c1.2,-1.2 2.7,-1.8 4.3,-1.8l71.7,0c7.7,0 14,6.3 14,14l0,98.1c0,7.7 -6.3,14 -14,14l-98.2,0c-7.7,0 -14,-6.3 -14,-13.9l-0.2,-41.1c0,-3.7 1.4,-7.3 4.1,-9.9c5.3,-5.4 12.1,-12.2 18.9,-19c6.8,-6.8 13.6,-13.7 18.9,-19.1c2.6,-2.6 6.2,-4.1 9.9,-4.1l55.8,0l0,88.3l-88.3,0l0,-33.9c0,-1.7 0.7,-3.2 1.9,-4.4c3.9,-3.8 9.6,-9.2 15.3,-14.6c5.8,-5.5 11.6,-11.1 15.5,-14.8c1.1,-1.1 2.6,-1.7 4.2,-1.7l32.6,0l0,50.6l-50.6,0l0,-8.7l12.6,-12.4l0,1.5c0,3.9 3.1,7 7,7l11.4,0c3.9,0 7,-3.1 7,-7l0,-11.4c0,-3.9 -3.1,-7 -7,-7l-11.4,0c-0.2,0 -0.4,0 -0.7,0c-6.2,0.2 -12,2.8 -16.4,7.2l-12.3,12.2c-2.7,2.6 -4.2,6.3 -4.2,10l0,8.7c0,7.7 6.3,14 14,14l50.6,0c7.7,0 14,-6.3 14,-14l0,-50.8c0,-7.7 -6.3,-14 -14,-14l-32.6,0c-5.2,0 -10.2,2 -14,5.6c-3.9,3.7 -9.6,9.2 -15.4,14.8c-5.7,5.5 -11.4,10.9 -15.4,14.7c-3.9,3.8 -6.2,9 -6.2,14.5l0,33.9c0,7.7 6.3,14 14,14l88.3,0c7.7,0 14,-6.3 14,-14l0,-88.4c0,-7.7 -6.3,-14 -14,-14l-55.8,0c-7.5,0 -14.6,3 -19.9,8.3c-5.4,5.4 -12.1,12.2 -18.9,19.1c-6.8,6.8 -13.5,13.7 -18.9,19c-5.3,5.3 -8.2,12.4 -8.1,19.9l0.2,41.1c0.1,15.3 12.7,27.9 28,27.9l98.2,0c15.5,0 28,-12.5 28,-28l0,-98.2c0.2,-15.4 -12.4,-28 -27.9,-28z" class="st0"/>
	</g>
</svg>