<?xml version="1.0" encoding="UTF-8" standalone="no"?>
<!-- Created with Inkscape (http://www.inkscape.org/) -->
<svg id="svg4343" xmlns:rdf="http://www.w3.org/1999/02/22-rdf-syntax-ns#" xmlns="http://www.w3.org/2000/svg" height="50.035" width="207.58" version="1.1" xmlns:cc="http://creativecommons.org/ns#" xmlns:xlink="http://www.w3.org/1999/xlink" xmlns:dc="http://purl.org/dc/elements/1.1/">
 <defs id="defs4345">
  <clipPath id="clipPath12946" clipPathUnits="userSpaceOnUse">
   <path id="path12948" d="m0 0h792v612h-792v-612z"/>
  </clipPath>
 </defs>
 <metadata id="metadata4348">
  <rdf:RDF>
   <cc:Work rdf:about="">
    <dc:format>image/svg+xml</dc:format>
    <dc:type rdf:resource="http://purl.org/dc/dcmitype/StillImage"/>
    <dc:title/>
   </cc:Work>
  </rdf:RDF>
 </metadata>
 <g id="layer1" transform="translate(-703.6 -168.13)">
  <g id="g13567" transform="matrix(6.2473 0 0 6.2473 567.24 -1809.8)">
   <g id="g12942" transform="matrix(.32556 0 0 -.32556 -191.07 504.13)">
    <g id="g12944" clip-path="url(#clipPath12946)">
     <g id="g12950" transform="translate(741.23 551.98)">
      <path id="path12952" d="m0 0h3.968v8.457c0 2.017 0.911 4.554 3.904 4.554 2.017 0 2.927-0.976 2.927-3.253v-9.758h3.968v10.896c0 4.782-3.22 5.953-6.017 5.953-2.245 0-3.839-0.878-4.717-2.017h-0.065v8.978h-3.968v-23.81zm-1.236 12.165c-1.008 2.472-2.96 4.684-6.961 4.684-5.334 0-8.424-3.708-8.424-8.619 0-4.912 3.09-8.62 8.131-8.62 4.457 0 6.343 2.634 7.449 5.042l-3.383 1.788c-0.618-1.496-1.626-3.187-4-3.187-2.765 0-4.034 2.406-4.034 4.977 0 2.569 1.431 4.976 4.261 4.976 1.561 0 2.96-1.008 3.481-2.635l3.48 1.594zm-28.873-1.821c0.423 1.756 1.952 3.252 4.261 3.252 2.667 0 3.74-2.374 3.74-3.252h-8.001zm12.165-3.058c0 5.888-2.407 9.563-7.904 9.563-5.335 0-8.425-3.708-8.425-8.619 0-4.912 3.09-8.62 8.425-8.62 4.488 0 6.863 2.146 8.099 4.033l-3.35 1.951c-0.391-0.552-1.627-2.341-4.749-2.341-2.147 0-4.196 1.593-4.261 4.033h12.165zm-24.048 12.757v-16.27c0-2.505 1.106-3.968 4.358-3.968 1.237 0 2.212 0.195 3.156 0.39v3.253c-0.586-0.065-1.204-0.195-1.757-0.195-1.529 0-1.789 0.715-1.789 2.016v8.327h3.546v2.863h-3.546v7.557l-3.968-3.973zm-6.649-20.043h3.968v23.81h-3.968v-23.81zm-6.809 5.887c0-2.114-2.374-3.025-4.229-3.025-1.431 0-2.569 0.814-2.569 2.05 0 1.561 1.236 1.984 2.732 2.276l2.179 0.456c0.716 0.13 1.367 0.325 1.887 0.586v-2.343zm3.968 5.562c0 4.684-3.545 5.4-7.091 5.4-3.61 0-7.026-1.496-7.026-5.367l3.969-0.163c0 1.789 0.748 2.472 3.057 2.472 1.724 0 3.123-0.455 3.123-2.081v-0.488c-1.008-0.358-2.863-0.683-4.294-0.976l-1.659-0.325c-2.439-0.488-5.009-1.92-5.009-5.14 0-3.187 2.472-5.171 5.595-5.171 2.049 0 3.838 0.65 5.367 1.886 0-0.423 0.13-1.106 0.39-1.496h4.196c-0.227 0.358-0.618 1.073-0.618 2.765v8.684zm-15.528 5.01c-1.106 4.846-4.652 7.286-9.303 7.286-6.928 0-10.98-5.627-10.98-12.165s3.564-12.165 10.98-12.165c4.619 0 7.709 2.244 9.563 6.895l-3.968 1.822c-0.846-2.7-2.57-4.684-5.595-4.684-4.619 0-6.538 4.098-6.538 8.132 0 4.033 1.919 8.131 6.538 8.131 2.635 0 4.749-1.756 5.107-4.326l4.196 1.074z" fill="#f58427"/>
     </g>
    </g>
   </g>
  </g>
 </g>
</svg>
