<svg xmlns="http://www.w3.org/2000/svg" width="307" height="113.216"><path fill="#F8A91E" d="M7.17 33.68H1.1V23.2H7.2v-5.13c0-5.57 1.34-9.52 4.04-11.85s6.5-3.5 11.38-3.5c1.17 0 2.24.04 3.22.1.98.06 1.96.15 2.94.28.18.06.4.1.64.13.24.04.5.05.73.05 0 0-.4 11.28-.64 11.25-.25-.03-.5-.08-.74-.14-.25 0-.5-.02-.74-.05-.24-.03-.46-.05-.64-.05-1.9 0-3.26.3-4.1.92-.8.6-1.23 1.62-1.23 3.03v4.96h8.1V33.7h-8.1V69.3H7.17V33.7zM33.8 23.2h12.87v46.1H33.8V23.2zM85.33 58.82V33.68h-6.06V23.2h6.06V6.7h14.88V23.2h8.18V33.7h-8.17v19.56c0 1.65.2 3.02.6 4.1.4 1.06 1.8 1.6 4.18 1.6.6 0 1.2-.05 1.8-.14.57-.1 1.1-.2 1.6-.32V69.3c-.8.26-1.7.46-2.7.6-1.02.16-2.05.3-3.1.42-.78.07-1.58.1-2.37.14-.8.03-1.56.05-2.3.05-3.9 0-6.98-.9-9.22-2.7-2.23-1.82-3.35-4.78-3.35-8.9v-.08zM125.37 49.57c0 .67 0 1.35.04 2.02.05.66.12 1.37.25 2.1.3 1.72.93 3.3 1.88 4.73.95 1.44 2.46 2.16 4.54 2.16 1.78 0 3.37-.6 4.78-1.76 1.4-1.16 2.33-2.7 2.75-4.6l10.02 3.6c-.13.54-.48 1.4-1.06 2.52-.58 1.13-1.43 2.34-2.53 3.63-1.4 1.64-3.32 3.13-5.74 4.44-2.43 1.32-5.47 1.98-9.15 1.98-7.1 0-12.32-2.44-15.66-7.3-3.34-4.87-5-10.5-5-16.86 0-6.55 1.7-12.2 5.1-16.94 3.38-4.75 8.5-7.12 15.37-7.12 6.98 0 11.9 2.45 14.8 7.34 2.86 4.9 4.36 10.3 4.5 16.17 0 .2 0 .35 0 .47s0 .24 0 .37v3.03h-24.9zm11.1-8.82c0-.2 0-.4 0-.64s-.02-.48-.08-.73c-.07-1.96-.44-3.75-1.1-5.37-.7-1.62-2.16-2.44-4.42-2.44-1.9 0-3.25.82-4.04 2.44-.8 1.62-1.26 3.4-1.38 5.37-.06.25-.1.5-.1.74 0 .25 0 .46 0 .65h11.12zM155.6 23.2h14.6v7h.17c.8-2.46 2.34-4.3 4.64-5.57 2.3-1.25 4.74-2.03 7.3-2.34.44 0 .85-.03 1.25-.06s.78-.04 1.15-.04v14.97c-.3-.06-.63-.15-.96-.28-.34-.13-.7-.22-1.06-.28-.68-.2-1.33-.34-1.98-.46-.64-.12-1.33-.2-2.06-.2-2.4 0-4.12.3-5.2.9-1.06.57-2.03 1.4-2.88 2.5 0 .07-.04.14-.1.2V69.3h-14.88V23.2z"/><path fill="#939598" d="M189.48 24.02h8.6v7c2.1-5.38 5.85-8.07 11.24-8.07 3.06 0 5.52.73 7.4 2.2 1.87 1.46 3.05 3.2 3.54 5.26.5 2.06.74 5.3.74 9.72v29.2h-9.32V40.64c0-3.94-.35-6.63-1.04-8.04-.7-1.4-2.16-2.12-4.4-2.12-2.35 0-4.17.9-5.48 2.7-1.3 1.82-1.96 5.4-1.96 10.78V69.3h-9.32V24.03zM241.32 17.92h-9.82v-9.9h9.82v9.9zm-9.6 6.1h9.33v45.3h-9.33V24zM253.74 12.23l8.43-.8v12.6h8.66v7.52h-8.66v19.98c0 3.52.1 5.86.27 7 .18 1.15.72 2.1 1.62 2.82.9.74 2.4 1.1 4.48 1.1 1.1 0 2.36-.1 3.77-.3v7.47c-2.5.54-4.84.8-7 .8-3.5.02-6.16-.67-8-2.03-1.87-1.37-3.05-3.2-3.56-5.54-.5-2.33-.76-5.9-.76-10.68V31.55h-5.87v-7.53h6.15l.5-11.8zM271.54 24.02h9.4l7.88 31.1 8.1-31.1h8.43l-14.7 48.16c-1.08 3.5-2.07 6.1-2.96 7.76s-2.18 3.03-3.82 4.06c-1.65 1.03-3.77 1.55-6.37 1.55-1.55 0-3.15-.2-4.8-.63v-7.44c1.2.2 2.3.3 3.28.3 2.42 0 4.14-.58 5.16-1.76 1.02-1.18 2.1-3.92 3.27-8.23L271.55 24z"/><path fill="none" stroke="#939598" stroke-width="3.097" d="M7.65 79.3v31.2M21.1 79.3v18.95M34.53 79.3v31.2M47.97 79.3v18.95M61.4 79.3v31.2M74.85 79.3v18.95M88.3 79.3v31.2M101.73 79.3v18.95M115.17 79.3v31.2M128.6 79.3v18.95M142.05 79.3v31.2M169.44 79.3v31.2M155.5 79.3v18.95"/><g fill="#F8A91E"><path d="M76.05 58.94c-2.38 0-3.78-.54-4.18-1.6-.4-1.08-.6-2.45-.6-4.1V33.68h4.5V23.2h-4.5V6.7H56.4V23.2h-6.06V33.7h6.06V58.92c0 4.1 1.12 7.06 3.35 8.87 2.23 1.8 5.3 2.7 9.23 2.7.73 0 1.5 0 2.3-.04.8-.03 1.6-.07 2.38-.14 1.05-.12 2.07-.26 3.08-.4s1.92-.36 2.7-.6V58.47c-.48.12-1 .23-1.6.32-.58.1-1.17.14-1.8.14zM79.37 23.2h.08V33.7h-.08z"/></g><circle cx="40.036" cy="12.041" r="6.786" fill="#F8A91E"/></svg>